<?xml version="1.0" encoding="UTF-8" standalone="no"?>
<svg
   xmlns:dc="http://purl.org/dc/elements/1.1/"
   xmlns:cc="http://creativecommons.org/ns#"
   xmlns:rdf="http://www.w3.org/1999/02/22-rdf-syntax-ns#"
   xmlns:svg="http://www.w3.org/2000/svg"
   xmlns="http://www.w3.org/2000/svg"
   xmlns:sodipodi="http://sodipodi.sourceforge.net/DTD/sodipodi-0.dtd"
   xmlns:inkscape="http://www.inkscape.org/namespaces/inkscape"
   viewBox="0 0 20 50.000001"
   version="1.1"
   id="svg8"
   sodipodi:docname="artifact-texture.svg"
   width="20"
   height="50"
   inkscape:version="0.92.4 (5da689c313, 2019-01-14)">
  <metadata
     id="metadata14">
    <rdf:RDF>
      <cc:Work
         rdf:about="">
        <dc:format>image/svg+xml</dc:format>
        <dc:type
           rdf:resource="http://purl.org/dc/dcmitype/StillImage" />
        <dc:title>Asset 33</dc:title>
      </cc:Work>
    </rdf:RDF>
  </metadata>
  <defs
     id="defs12" />
  <sodipodi:namedview
     pagecolor="#ffffff"
     bordercolor="#666666"
     borderopacity="1"
     objecttolerance="10"
     gridtolerance="10"
     guidetolerance="10"
     inkscape:pageopacity="0"
     inkscape:pageshadow="2"
     inkscape:window-width="2560"
     inkscape:window-height="1411"
     id="namedview10"
     showgrid="false"
     inkscape:zoom="6.16188"
     inkscape:cx="-12.233474"
     inkscape:cy="19.15"
     inkscape:window-x="1491"
     inkscape:window-y="356"
     inkscape:window-maximized="1"
     inkscape:current-layer="svg8" />
  <title
     id="title2">Asset 33</title>
  <g
     id="Layer_2"
     data-name="Layer 2"
     transform="translate(0,5.85)">
    <g
       id="Layer_1-2"
       data-name="Layer 1">
      <path
         d="M 3.67,23.45 A 6.94,6.94 0 0 0 2.74,21.22 C 2.53,20.84 2.32,20.46 2.14,20.08 a 15,15 0 0 1 -1,-5.65 L 0.86,8.77 0,9.57 v 19.15 l 1.25,1.18 1.37,-2.76 a 6.76,6.76 0 0 0 1.05,-3.69 z m 12.69,-2.27 c -0.12,-0.4 -0.28,-0.64 -0.45,-0.71 -0.17,-0.07 -0.58,0.12 -0.79,0.38 a 5.14,5.14 0 0 0 -0.8,3.09 c -0.07,2.17 -0.09,4.35 -0.05,6.49 a 16.07,16.07 0 0 1 -0.85,4.81 v 0.12 l 2.7,-2.54 a 15.69,15.69 0 0 1 -0.19,-6 c 0.08,-0.38 0.19,-0.77 0.31,-1.15 0.12,-0.38 0.24,-0.85 0.32,-1.27 a 6.46,6.46 0 0 0 -0.2,-3.22 z m 1,-14.53 a 14,14 0 0 0 0.39,1.58 c 0.14,0.52 0.3,1 0.4,1.57 a 16.48,16.48 0 0 1 -0.08,4.91 17.9,17.9 0 0 0 -0.17,4.13 L 17,19 A 18.21,18.21 0 0 1 17.16,14.63 15.16,15.16 0 0 0 17.2,10 13.5,13.5 0 0 0 16.83,8.51 9.73,9.73 0 0 1 16.32,5.7 L 12.27,1.9 a 15.12,15.12 0 0 0 2,5.44 l 0.13,0.24 c 1.76,3.42 2.12,6.08 1.09,8.13 a 8.13,8.13 0 0 1 -1.5,2 7.66,7.66 0 0 0 -1.33,1.71 9.37,9.37 0 0 0 -0.66,3.74 v 0.56 a 32.65,32.65 0 0 1 -1.59,8.19 l -0.33,0.94 a 14,14 0 0 0 -1,4.28 l 1.25,1.17 1.81,-1.7 c 0.14,-0.55 0.3,-1.09 0.45,-1.63 a 15.27,15.27 0 0 0 0.82,-4.52 c -0.05,-2.16 0,-4.36 0,-6.54 a 5.79,5.79 0 0 1 1,-3.67 1.73,1.73 0 0 1 1.89,-0.66 1.93,1.93 0 0 1 1,1.31 7.53,7.53 0 0 1 0.2,3.65 c -0.08,0.47 -0.22,0.92 -0.34,1.36 -0.12,0.44 -0.21,0.72 -0.3,1.08 A 13.67,13.67 0 0 0 16.94,32 l 1.78,-1.66 a 35.74,35.74 0 0 1 -0.34,-8.58 l 1,0.08 a 35.42,35.42 0 0 0 0.22,7.7 l 0.44,-0.41 V 9.12 Z m -5.1,3.09 a 25.44,25.44 0 0 0 -1.68,-2 1.71,1.71 0 0 0 -1,-0.64 0.36,0.36 0 0 0 -0.14,0 c -0.59,0.2 -1.4,1.52 -1.9,6.61 v 0.49 a 2.23,2.23 0 0 0 0.2,1.65 2,2 0 0 0 1.06,0.51 3.78,3.78 0 0 0 2.65,0 3.91,3.91 0 0 0 1.19,-1.36 5.17,5.17 0 0 0 0.93,-1.86 4.85,4.85 0 0 0 -1.31,-3.4 z m -1.14,3.72 -0.47,1 A 1.43,1.43 0 0 1 10.01,15.16 1.11,1.11 0 0 1 9.64,15.23 0.92,0.92 0 0 1 9.19,15.11 1.72,1.72 0 0 1 8.43,13.93 4,4 0 0 1 10,10.22 l 0.21,0.27 a 1.08,1.08 0 0 1 0.55,0.12 1.51,1.51 0 0 1 0.84,1.05 2.9,2.9 0 0 1 -0.48,1.8 z m -0.79,-2 c -0.07,0 -0.11,0 -0.15,0 l -0.07,-0.11 a 3.15,3.15 0 0 0 -0.73,2.42 0.7,0.7 0 0 0 0.28,0.49 c 0,0 0.1,-0.2 0.12,-0.25 l 0.49,-1 a 2.12,2.12 0 0 0 0.34,-1.2 0.52,0.52 0 0 0 -0.28,-0.33 z m 1.93,-1.74 a 25.44,25.44 0 0 0 -1.68,-2 1.71,1.71 0 0 0 -1,-0.64 0.36,0.36 0 0 0 -0.14,0 c -0.59,0.2 -1.4,1.52 -1.9,6.61 v 0.49 a 2.23,2.23 0 0 0 0.2,1.65 2,2 0 0 0 1.06,0.51 3.78,3.78 0 0 0 2.65,0 3.91,3.91 0 0 0 1.19,-1.34 5.17,5.17 0 0 0 0.93,-1.86 4.85,4.85 0 0 0 -1.31,-3.4 z m -1.14,3.72 -0.47,1 A 1.43,1.43 0 0 1 10.01,15.14 1.11,1.11 0 0 1 9.64,15.21 0.92,0.92 0 0 1 9.19,15.09 1.72,1.72 0 0 1 8.43,13.91 4,4 0 0 1 10,10.22 l 0.21,0.27 a 1.08,1.08 0 0 1 0.55,0.12 1.51,1.51 0 0 1 0.84,1.05 2.9,2.9 0 0 1 -0.48,1.8 z m -0.79,-2 c -0.07,0 -0.11,0 -0.15,0 l -0.07,-0.11 a 3.15,3.15 0 0 0 -0.73,2.42 0.7,0.7 0 0 0 0.28,0.49 c 0,0 0.1,-0.2 0.12,-0.25 l 0.49,-1 a 2.12,2.12 0 0 0 0.34,-1.2 0.52,0.52 0 0 0 -0.28,-0.31 z M 13.55,8 13.42,7.76 C 12.35,5.72 11.15,3.4 11.32,1 L 10.24,0 7.53,2.53 A 5.65,5.65 0 0 1 7.1,5.53 6.14,6.14 0 0 0 6.65,8 L 5.71,8.12 A 6.71,6.71 0 0 1 6.19,5.25 6.57,6.57 0 0 0 6.64,3.37 L 3.84,6 a 23.53,23.53 0 0 0 1.61,9.55 c 0.34,0.86 0.73,1.71 1.13,2.55 a 29,29 0 0 1 1.71,4.25 c 0.83,2.9 0.55,5.71 -0.76,7.53 a 11.15,11.15 0 0 1 -0.82,1 7.47,7.47 0 0 0 -0.82,1 4.33,4.33 0 0 0 -0.68,1.79 L 8,36.21 8.09,36.29 a 17.23,17.23 0 0 1 1,-3.76 C 9.2,32.23 9.31,31.92 9.41,31.61 A 31.28,31.28 0 0 0 11,23.67 V 23.1 a 10,10 0 0 1 0.81,-4.1 8.67,8.67 0 0 1 1.48,-2 7.41,7.41 0 0 0 1.35,-1.74 C 15.52,13.53 15.17,11.15 13.55,8 Z m 0.95,5.31 v 0 a 5.74,5.74 0 0 1 -1.08,2.25 4.74,4.74 0 0 1 -1.58,1.6 3.25,3.25 0 0 1 -1.6,0.38 7,7 0 0 1 -1.76,-0.27 3,3 0 0 1 -1.54,-0.8 3.16,3.16 0 0 1 -0.43,-2.4 V 13.6 c 0.33,-3.35 0.9,-6.85 2.54,-7.42 0.69,-0.23 1.42,0.06 2.18,0.87 0.76,0.81 1.26,1.41 1.77,2.11 a 5.62,5.62 0 0 1 1.5,4.17 z M 10.58,7.74 a 1.71,1.71 0 0 0 -1,-0.64 0.36,0.36 0 0 0 -0.14,0 c -0.59,0.2 -1.4,1.52 -1.9,6.61 v 0.49 a 2.23,2.23 0 0 0 0.2,1.65 2,2 0 0 0 1.06,0.51 3.78,3.78 0 0 0 2.65,0 A 3.91,3.91 0 0 0 12.64,15 5.17,5.17 0 0 0 13.57,13.14 4.85,4.85 0 0 0 12.26,9.71 25.44,25.44 0 0 0 10.58,7.74 Z m 0.54,5.72 -0.47,1 A 1.43,1.43 0 0 1 10.01,15.16 1.11,1.11 0 0 1 9.64,15.23 0.92,0.92 0 0 1 9.19,15.11 1.72,1.72 0 0 1 8.43,13.93 4,4 0 0 1 10,10.22 l 0.21,0.27 a 1.08,1.08 0 0 1 0.55,0.12 1.51,1.51 0 0 1 0.84,1.05 2.9,2.9 0 0 1 -0.48,1.8 z m -0.79,-2 c -0.07,0 -0.11,0 -0.15,0 l -0.07,-0.11 a 3.15,3.15 0 0 0 -0.73,2.42 0.7,0.7 0 0 0 0.28,0.49 c 0,0 0.1,-0.2 0.12,-0.25 l 0.49,-1 a 2.12,2.12 0 0 0 0.34,-1.2 0.52,0.52 0 0 0 -0.28,-0.33 z m -3,11.11 A 29.42,29.42 0 0 0 5.67,18.46 C 5.27,17.62 4.87,16.74 4.52,15.85 a 24.49,24.49 0 0 1 -1.7,-9 L 2.2,7.44 1.74,7.87 2.04,14.34 A 13.9,13.9 0 0 0 3,19.67 c 0.16,0.37 0.36,0.73 0.55,1.09 a 7.46,7.46 0 0 1 1,2.55 7.37,7.37 0 0 1 -1.13,4.25 L 2,30.58 4.4,32.83 A 5.51,5.51 0 0 1 5.1,31.27 11.32,11.32 0 0 1 6,30.17 9.91,9.91 0 0 0 6.75,29.3 c 1.14,-1.58 1.37,-4.09 0.62,-6.71 z"
         id="path4"
         inkscape:connector-curvature="0" />
    </g>
  </g>
</svg>
