<svg xmlns="http://www.w3.org/2000/svg" viewBox="0 0 43 43"><defs><style>.cls-1{fill-rule:evenodd;}</style></defs><title>Asset 28</title><g id="Layer_2" data-name="Layer 2"><g id="Layer_1-2" data-name="Layer 1"><ellipse cx="18.67" cy="8.4" rx="3.96" ry="3.92"/><ellipse cx="12.45" cy="12.33" rx="2.26" ry="2.24"/><ellipse cx="9.62" cy="26.33" rx="2.83" ry="2.8"/><ellipse cx="22.63" cy="17.93" rx="2.26" ry="2.24"/><ellipse cx="38.47" cy="20.17" rx="4.53" ry="4.48"/><ellipse cx="28.86" cy="28.57" rx="3.96" ry="3.92"/><ellipse cx="31.12" cy="12.89" rx="2.83" ry="2.8"/><ellipse cx="18.67" cy="24.09" rx="3.96" ry="3.92"/><ellipse cx="21.5" cy="2.24" rx="2.26" ry="2.24"/><ellipse cx="37.34" cy="8.96" rx="2.26" ry="2.24"/><ellipse cx="29.99" cy="19.61" rx="3.96" ry="3.92"/><path class="cls-1" d="M1.7,14.57a3.73,3.73,0,0,1-1.7-.4v-7a3.73,3.73,0,0,1,1.7-.4,3.93,3.93,0,1,1,0,7.85Z"/><path class="cls-1" d="M7.92,20.73a5.06,5.06,0,0,1-5.09,5A5.1,5.1,0,0,1,0,24.92V16.54a5.1,5.1,0,0,1,2.83-.85A5.06,5.06,0,0,1,7.92,20.73Z"/><ellipse cx="19.98" cy="38.52" rx="4.53" ry="4.48"/><ellipse cx="5.98" cy="32.58" rx="2.26" ry="2.24"/></g></g></svg>