<?xml version="1.0" encoding="UTF-8" standalone="no"?>
<svg
   xmlns:dc="http://purl.org/dc/elements/1.1/"
   xmlns:cc="http://creativecommons.org/ns#"
   xmlns:rdf="http://www.w3.org/1999/02/22-rdf-syntax-ns#"
   xmlns:svg="http://www.w3.org/2000/svg"
   xmlns="http://www.w3.org/2000/svg"
   xmlns:sodipodi="http://sodipodi.sourceforge.net/DTD/sodipodi-0.dtd"
   xmlns:inkscape="http://www.inkscape.org/namespaces/inkscape"
   viewBox="0 0 20 49.999999"
   version="1.1"
   id="svg8"
   sodipodi:docname="IGlyphVisAsset.svg"
   width="20"
   height="50"
   inkscape:version="0.92.4 (5da689c313, 2019-01-14)">
  <metadata
     id="metadata14">
    <rdf:RDF>
      <cc:Work
         rdf:about="">
        <dc:format>image/svg+xml</dc:format>
        <dc:type
           rdf:resource="http://purl.org/dc/dcmitype/StillImage" />
        <dc:title>Asset 31</dc:title>
      </cc:Work>
    </rdf:RDF>
  </metadata>
  <defs
     id="defs12" />
  <sodipodi:namedview
     pagecolor="#ffffff"
     bordercolor="#666666"
     borderopacity="1"
     objecttolerance="10"
     gridtolerance="10"
     guidetolerance="10"
     inkscape:pageopacity="0"
     inkscape:pageshadow="2"
     inkscape:window-width="716"
     inkscape:window-height="480"
     id="namedview10"
     showgrid="false"
     inkscape:zoom="6.9843147"
     inkscape:cx="10"
     inkscape:cy="16.895"
     inkscape:window-x="0"
     inkscape:window-y="0"
     inkscape:window-maximized="0"
     inkscape:current-layer="svg8" />
  <title
     id="title2">Asset 31</title>
  <g
     id="Layer_2"
     data-name="Layer 2"
     transform="translate(0,8.0734428)">
    <g
       id="Layer_1-2"
       data-name="Layer 1">
      <path
         d="m 20,16.3 v 1 c -1.63,0.14 -2.55,0.14 -4.48,0.38 -1.16,0.15 -1.45,-0.08 -2.5,0.47 -1.81,0.94 -2,5.74 -0.42,7.48 2.52,2.7 3.33,6.08 1.66,7.49 -0.37,0.31 -1,1 -1.56,0.6 a 3.19,3.19 0 0 0 -1.86,-0.06 3.4,3.4 0 0 1 -1.56,-1 c -1.25,-1 -2.22,0.17 -2.91,-1.4 -0.84,-1.88 -2,0.08 -2.5,-2.34 -0.24,-1.3 -1.41,-2 -1.25,-3.28 C 2.78,24.36 0.11,23.47 1,21.86 1.14,21.61 1,20.91 0.75,19.76 A 2.65,2.65 0 0 1 1,18.12 C 1.65,16.78 6.35,17.64 8.07,16.72 6,16.25 2.41,16.47 1,15.32 0,14.54 -0.32,13.32 0.49,13.02 A 1.54,1.54 0 0 0 1.42,11.58 3,3 0 0 1 2.25,9.71 C 2.64,9.2 3.47,8.78 3.5,7.83 A 2.68,2.68 0 0 1 3.7,6.56 C 3.82,6.19 3.81,5.56 4.33,5.5 5.06,5.36 5.33,5 5.55,4.14 5.63,3.8 6.13,3.56 6.63,3.14 6.81,3 8,3 8.3,2 8.54,1.18 9.2,1.05 10.53,0.87 A 4.73,4.73 0 0 0 11.58,0.36 C 12.45,0 13,-0.1 13.16,0.15 a 8.29,8.29 0 0 0 0.7,0.67 3.56,3.56 0 0 1 0,2.63 C 13.13,6 12.36,6.33 11.77,8.3 c -0.59,1.97 -0.83,4.68 0,6.08 0.53,0.89 1.19,1.29 3.33,1.87 1.9,0.52 3.06,0.23 4.9,0.05 z"
         id="path4"
         inkscape:connector-curvature="0" />
    </g>
  </g>
</svg>
