<?xml version="1.0" encoding="UTF-8" standalone="no"?>
<svg
   xmlns:dc="http://purl.org/dc/elements/1.1/"
   xmlns:cc="http://creativecommons.org/ns#"
   xmlns:rdf="http://www.w3.org/1999/02/22-rdf-syntax-ns#"
   xmlns:svg="http://www.w3.org/2000/svg"
   xmlns="http://www.w3.org/2000/svg"
   xmlns:sodipodi="http://sodipodi.sourceforge.net/DTD/sodipodi-0.dtd"
   xmlns:inkscape="http://www.inkscape.org/namespaces/inkscape"
   viewBox="0 0 20 49.999998"
   version="1.1"
   id="svg8"
   sodipodi:docname="IColorMapVisAsset.svg"
   width="20"
   height="50"
   inkscape:version="0.92.4 (5da689c313, 2019-01-14)">
  <metadata
     id="metadata14">
    <rdf:RDF>
      <cc:Work
         rdf:about="">
        <dc:format>image/svg+xml</dc:format>
        <dc:type
           rdf:resource="http://purl.org/dc/dcmitype/StillImage" />
        <dc:title>Asset 32</dc:title>
      </cc:Work>
    </rdf:RDF>
  </metadata>
  <defs
     id="defs12" />
  <sodipodi:namedview
     pagecolor="#ffffff"
     bordercolor="#666666"
     borderopacity="1"
     objecttolerance="10"
     gridtolerance="10"
     guidetolerance="10"
     inkscape:pageopacity="0"
     inkscape:pageshadow="2"
     inkscape:window-width="1920"
     inkscape:window-height="1057"
     id="namedview10"
     showgrid="false"
     inkscape:zoom="3.3966607"
     inkscape:cx="-35.739958"
     inkscape:cy="-10.077315"
     inkscape:window-x="-8"
     inkscape:window-y="-8"
     inkscape:window-maximized="1"
     inkscape:current-layer="svg8" />
  <title
     id="title2">Asset 32</title>
  <g
     id="Layer_2"
     data-name="Layer 2"
     transform="translate(0,7.64087)">
    <g
       id="Layer_1-2"
       data-name="Layer 1">
      <path
         d="m 0.77,8.34 c -4.75,23.16 14,27.9 16.79,26 3.78,-2.53 -1.49,-4.56 -1,-9.34 0.26,-2.65 1.73,-0.4 3.44,-0.7 V 7.54 C 14.33,-0.29 3.46,-4.84 0.77,8.34 Z M 4.08,20.39 A 1.68,1.68 0 0 1 2.55,18.6 1.68,1.68 0 0 1 4.08,16.8 1.68,1.68 0 0 1 5.62,18.6 1.68,1.68 0 0 1 4.08,20.39 Z m 1,-7.18 a 1.68,1.68 0 0 1 -1.53,-1.8 1.68,1.68 0 0 1 1.55,-1.8 1.69,1.69 0 0 1 1.54,1.8 1.69,1.69 0 0 1 -1.54,1.8 z m 3.07,-6 A 1.68,1.68 0 0 1 6.62,5.41 1.68,1.68 0 0 1 8.15,3.61 1.68,1.68 0 0 1 9.7,5.42 1.68,1.68 0 0 1 8.17,7.22 Z M 15,30 a 1.7,1.7 0 0 1 -2.47,1.49 3.5,3.5 0 0 1 -1.8,-3.45 1.68,1.68 0 0 1 2.46,-1.48 A 3.49,3.49 0 0 1 15,30 Z M 14.3,8.41 a 1.68,1.68 0 0 1 -1.53,-1.79 1.68,1.68 0 0 1 1.53,-1.8 1.68,1.68 0 0 1 1.54,1.8 1.68,1.68 0 0 1 -1.54,1.79 z m 3.07,6 a 1.68,1.68 0 0 1 -1.53,-1.79 1.68,1.68 0 0 1 1.53,-1.8 1.68,1.68 0 0 1 1.54,1.8 1.68,1.68 0 0 1 -1.54,1.78 z"
         id="path4"
         inkscape:connector-curvature="0" />
    </g>
  </g>
</svg>
