# Blender v2.79 (sub 0) OBJ File: ''
# www.blender.org
g haiku_direction_1_LOD3
v -0.039345 0.207164 0.284886
v 0.007551 0.147650 0.295118
v -0.092203 -0.532141 -0.196284
v -0.035768 0.374194 0.220234
v -0.160492 -0.604954 -0.231588
v -0.141971 -0.490199 -0.229880
v 0.101627 0.279408 0.261073
v 0.170778 0.093472 0.108367
v -0.086563 0.114332 0.100389
v 0.037055 0.365647 0.204826
v 0.090565 0.144456 0.298621
v -0.080537 -0.136775 0.045829
v -0.170714 -0.567576 -0.170391
v 0.054822 0.378426 0.139612
v 0.060444 -0.171514 0.090701
v 0.126546 0.138831 0.096733
v 0.154878 0.114340 0.234839
v -0.070024 0.371284 0.147904
v -0.055984 0.333903 0.109675
v 0.116665 0.206190 0.110063
v 0.004810 0.374692 0.114141
v 0.164079 0.172124 0.097027
v -0.080453 0.351417 0.092565
v 0.040921 0.380759 0.059996
v -0.035293 0.400392 0.083570
v 0.114749 0.288494 0.075770
v 0.004458 0.350157 -0.093573
v -0.062330 -0.055009 0.028393
v 0.068036 -0.078193 -0.060483
v 0.183014 0.183998 -0.044840
v -0.094345 -0.043388 0.013904
v -0.093246 0.346124 -0.011646
v 0.009261 -0.275012 -0.019206
v 0.072735 0.356522 -0.073831
v 0.111485 0.280013 -0.076718
v -0.080033 0.226681 -0.066343
v 0.144315 0.279187 -0.080055
v -0.063043 -0.324146 0.006319
v -0.125324 -0.325971 -0.020072
v -0.094773 -0.168412 -0.183750
v 0.096877 0.302880 -0.101117
v -0.009308 -0.334066 -0.020941
v -0.038653 -0.213549 -0.173621
v -0.056705 -0.216438 -0.155215
v -0.128713 -0.195881 -0.147362
v -0.163662 -0.269299 -0.135417
v -0.121679 -0.583589 -0.174231
v 0.020040 -0.251493 -0.121075
v -0.116656 -0.016920 -0.129201
v 0.004418 -0.207404 -0.155737
v 0.069097 -0.094011 -0.098447
v -0.005315 -0.010531 -0.153766
vt 0.442267 0.850260
vt 0.410478 0.894144
vt 0.349725 0.894465
vt 0.340230 0.785617
vt 0.584874 0.850935
vt 0.584874 0.987599
vt 0.532249 0.899483
vt 0.442267 0.709712
vt 0.455315 0.547595
vt 0.488226 0.471363
vt 0.510238 0.560001
vt 0.111184 0.860723
vt 0.111184 0.996030
vt 0.075974 0.907398
vt 0.777975 0.460251
vt 0.777975 0.755011
vt 0.718390 0.501755
vt 0.000000 0.118784
vt 0.072138 0.000000
vt 0.130551 0.013877
vt 0.129402 0.219730
vt 0.243409 0.523345
vt 0.330013 0.473931
vt 0.265849 0.658040
vt 0.130551 0.864282
vt 0.160875 0.822174
vt 0.155382 0.917197
vt 0.330013 0.724453
vt 0.846492 0.887706
vt 0.795811 0.586917
vt 0.846492 0.557240
vt 0.511996 0.792170
vt 0.130551 0.421979
vt 0.609338 0.850934
vt 0.545935 0.404344
vt 0.609338 0.411989
vt 0.218116 0.870413
vt 0.279333 0.724453
vt 0.269618 0.869108
vt 0.215372 0.903296
vt 0.240323 0.460462
vt 0.240323 0.669729
vt 0.225292 0.617376
vt 0.529075 0.077916
vt 0.500531 0.037623
vt 0.532249 0.000000
vt 0.532249 0.173524
vt 0.573365 0.201762
vt 0.627393 0.404344
vt 0.857412 0.000000
vt 0.821635 0.038756
vt 0.795811 0.005386
vt 0.627393 0.473699
vt 0.711779 0.420188
vt 0.711779 0.682924
vt 0.200110 0.840696
vt 0.532249 0.702775
vt 0.914371 0.328503
vt 0.902063 0.054147
vt 0.936070 0.240857
vt 0.309831 0.432900
vt 0.344636 0.199179
vt 0.344636 0.473931
vt 0.204485 0.657935
vt 0.964392 0.000000
vt 0.964392 0.093434
vt 0.936070 0.033361
vt 0.941862 0.181039
vt 0.075974 0.561888
vt 0.130434 0.421979
vt 0.130434 0.860724
vt 0.900765 0.554238
vt 0.874200 0.553164
vt 0.857412 0.498041
vt 0.846492 0.917396
vt 0.944868 0.788783
vt 0.944868 0.913722
vt 0.215372 0.792327
vt 0.900765 0.501324
vt 0.850753 0.348918
vt 0.804608 0.210664
vt 0.330013 0.870413
vt 0.442267 0.958422
vt 0.411552 0.929115
vt 0.442267 0.894465
vt 0.783797 0.969417
vt 0.737098 0.916175
vt 0.783797 0.801940
vt 0.846492 0.940999
vt 0.806746 0.940999
vt 0.826574 0.887706
vt 0.769999 0.004755
vt 0.795811 0.000000
vt 0.746635 0.291067
vt 0.243409 0.143385
vt 0.243409 0.460462
vt 0.130551 0.141019
vt 0.901191 0.788783
vt 0.846492 0.771142
vt 0.901191 0.557240
vt 0.145746 0.339174
vt 0.830589 0.410117
vt 0.718390 0.293434
vt 0.269769 0.953181
vt 0.218116 0.953181
vt 0.268621 0.870413
vt 0.165539 0.439820
vt 0.067679 0.954072
vt 0.043377 0.946639
vt 0.067679 0.828990
vt 0.863107 0.805823
vt 0.977015 0.557240
vt 0.977015 0.827778
vt 0.950428 0.799171
vt 0.857412 0.557240
vt 0.627393 0.000000
vt 0.901191 0.735470
vt 0.950428 0.557240
vt 0.950428 0.752477
vt 0.676673 0.801940
vt 0.442267 0.439258
vt 0.442267 0.709712
vt 0.344636 0.491233
vt 0.204485 0.792327
vt 0.130551 0.651004
vt 0.204485 0.460462
vt 0.473657 0.792170
vt 0.516179 0.818604
vt 0.442502 0.927361
vt 0.962176 0.422277
vt 0.943898 0.448691
vt 0.966507 0.206488
vt 0.301529 0.942120
vt 0.269769 0.906726
vt 0.301529 0.870413
vt 0.737098 0.833079
vt 0.737098 0.933195
vt 0.650122 0.948093
vt 0.691612 0.801940
vt 0.442502 0.792170
vt 0.627393 0.889374
vt 0.862507 0.249738
vt 0.857412 0.002905
vt 0.902063 0.000000
vt 0.531526 0.927361
vt 0.043377 0.995430
vt 0.000000 0.966323
vt 0.043377 0.828990
vt 0.795811 0.460251
vt 0.519731 0.471363
vt 0.452512 0.323907
vt 0.442502 0.276566
vt 0.902063 0.251305
vt 0.899951 0.251305
vt 0.899951 0.498041
vt 0.857412 0.471346
vt 0.450994 0.808514
vt 0.584874 0.980015
vt 0.625123 0.850935
vt 0.625123 1.000000
vt 0.243409 0.217033
vt 0.253607 0.000000
vt 0.410716 0.340558
vt 0.442502 0.439258
vt 0.344636 0.439258
vt 0.718391 0.051962
vt 0.627393 0.261961
vt 0.652398 0.000000
vt 0.966507 0.557240
vt 0.718391 0.292249
vt 0.664287 0.420188
vt 0.694663 0.400701
vt 0.407407 0.140455
vt 0.142441 0.000000
vt 0.532249 0.323147
vt 0.000000 0.784445
vt 0.075974 0.810048
vt 0.024352 0.828990
vt 0.943898 0.557240
vt 0.901191 0.383367
vt 0.943898 0.339587
vt 0.977015 0.565814
vt 1.000000 0.557240
vt 1.000000 0.804132
vt 0.031447 0.546742
vt 0.936070 0.000000
vt 0.992613 0.206488
vt 0.992613 0.468843
vt 0.966507 0.458407
vt 0.340230 0.929307
vt 0.369288 0.894465
vt 0.369288 0.963921
vt 0.330013 0.508068
vt 0.344038 0.473931
vt 0.344038 0.522583
vt 0.370768 0.018426
vt 0.408751 0.000000
vt 0.530971 0.637474
vt 0.511996 0.476564
vt 0.530971 0.471363
vt 0.075974 0.421979
vt 0.301529 0.907060
vt 0.339202 0.870413
vt 0.339202 0.929701
vn -0.6023 0.0738 0.7948
vn -0.2861 -0.2425 0.9270
vn 0.3254 -0.1396 0.9352
vn 0.6464 0.5170 0.5611
vn 0.8709 -0.1440 0.4699
vn -0.3827 0.7313 0.5645
vn 0.8631 -0.3004 -0.4058
vn -0.2866 -0.7608 -0.5822
vn -0.1803 0.1138 -0.9770
vn 0.5077 0.7603 0.4052
vn 0.6577 -0.5862 0.4729
vn -0.7387 0.6602 -0.1357
vn -0.9858 0.0421 -0.1622
vn 0.9548 0.0863 -0.2844
vn 0.6046 0.7912 0.0916
vn -0.9956 -0.0767 -0.0542
vn 0.0311 -0.1793 -0.9833
vn -0.0500 -0.4404 0.8964
vn 0.6410 0.1486 0.7530
vn 0.9969 0.0310 0.0726
vn 0.4368 -0.8215 0.3664
vn -0.0728 0.9848 0.1574
vn -0.9181 0.3382 0.2065
vn -0.9652 0.2027 -0.1653
vn -0.7794 -0.4596 0.4258
vn 0.7699 -0.0793 0.6332
vn 0.6699 0.5242 0.5257
vn 0.5101 0.8595 0.0312
vn -0.7963 0.3260 0.5095
vn 0.5264 0.6447 -0.5542
vn -0.2542 0.9192 0.3008
vn -0.9789 -0.1101 0.1717
vn 0.8717 -0.4563 0.1786
vn -0.7831 -0.2366 0.5751
vn -0.8882 0.1666 -0.4280
vn -0.8178 0.1566 -0.5538
vn -0.8547 0.2238 -0.4684
vn -0.8567 0.4391 -0.2707
vn 0.5972 0.5616 -0.5726
vn 0.9538 0.0011 -0.3004
vn 0.8837 -0.3531 -0.3073
vn 0.9372 -0.3475 -0.0284
vn -0.7022 -0.1479 0.6964
vn 0.6335 0.3101 -0.7089
vn 0.5009 0.7678 -0.3994
vn 0.7293 -0.4317 0.5308
vn -0.2134 0.6310 -0.7458
vn 0.8531 -0.2599 -0.4524
vn -0.2071 -0.1596 -0.9652
vn 0.3030 0.0657 -0.9507
vn 0.5388 -0.2944 -0.7893
vn -0.1645 -0.5538 -0.8162
s 1
f 1/1/1 2/2/2 11/3/3
f 1/1/1 11/3/3 7/4/4
f 17/5/5 7/6/4 11/7/3
f 7/4/4 4/8/6 1/1/1
f 3/9/7 5/10/8 6/11/9
f 4/12/6 7/13/4 10/14/10
f 11/15/3 15/16/11 17/17/5
f 1/18/1 4/19/6 18/20/12
f 18/20/12 9/21/13 1/18/1
f 17/22/5 8/23/14 7/24/4
f 10/25/10 14/26/15 4/27/6
f 8/23/14 10/28/10 7/24/4
f 12/29/16 2/30/2 1/31/1
f 44/32/17 3/9/7 6/11/9
f 12/33/16 1/18/1 9/21/13
f 38/34/18 11/35/3 2/36/2
f 10/37/10 20/38/19 14/39/15
f 4/27/6 14/26/15 18/40/12
f 10/41/10 16/42/20 20/43/19
f 3/44/7 47/45/21 5/46/8
f 8/47/14 16/48/20 10/49/10
f 21/50/22 19/51/23 18/52/12
f 8/53/14 17/54/5 15/55/11
f 18/40/12 14/26/15 21/56/22
f 15/57/11 11/35/3 38/34/18
f 5/58/8 46/59/24 6/60/9
f 13/61/25 46/62/24 5/63/8
f 22/64/26 20/43/19 16/42/20
f 22/65/26 26/66/27 20/67/19
f 26/66/27 24/68/28 20/67/19
f 12/69/16 38/70/18 2/71/2
f 23/72/29 19/73/23 21/74/22
f 22/75/26 37/76/30 26/77/27
f 21/56/22 14/26/15 24/78/28
f 23/72/29 21/74/22 25/79/31
f 28/80/32 9/81/13 19/51/23
f 20/38/19 24/82/28 14/39/15
f 9/81/13 18/52/12 19/51/23
f 25/83/31 21/84/22 24/85/28
f 38/86/18 33/87/33 15/88/11
f 47/89/21 13/90/25 5/91/8
f 19/92/23 23/93/29 31/94/34
f 31/95/34 23/96/29 49/97/35
f 45/98/36 44/99/17 6/100/9
f 36/101/37 49/97/35 23/96/29
f 28/80/32 12/102/16 9/81/13
f 31/94/34 28/103/32 19/92/23
f 23/104/29 25/105/31 32/106/38
f 23/96/29 32/107/38 36/101/37
f 37/108/30 35/109/39 26/110/27
f 37/76/30 22/75/26 30/111/40
f 51/112/41 22/113/26 16/114/20
f 12/102/16 28/80/32 38/115/18
f 8/47/14 29/116/42 16/48/20
f 38/117/18 28/118/32 39/119/43
f 33/120/33 8/53/14 15/55/11
f 22/121/26 51/122/41 30/123/40
f 33/124/33 29/125/42 8/126/14
f 41/127/44 34/128/45 26/129/27
f 29/130/42 51/131/41 16/132/20
f 38/133/18 42/134/46 33/135/33
f 27/136/47 32/137/38 25/138/31
f 25/138/31 34/139/45 27/136/47
f 44/32/17 48/140/48 3/9/7
f 24/141/28 34/139/45 25/138/31
f 47/142/21 42/143/46 38/144/18
f 26/129/27 34/128/45 24/145/28
f 44/146/17 40/147/49 52/148/50
f 31/94/34 45/149/36 28/103/32
f 29/150/42 33/151/33 42/152/46
f 13/153/25 47/142/21 38/144/18
f 13/154/25 38/155/18 39/156/43
f 26/129/27 35/157/39 41/127/44
f 50/158/51 29/159/42 48/160/48
f 39/161/43 28/162/32 46/62/24
f 36/163/37 32/164/38 27/165/47
f 30/166/40 52/167/50 37/168/30
f 29/130/42 50/169/51 51/131/41
f 51/170/41 52/167/50 30/166/40
f 43/171/52 52/167/50 50/172/51
f 49/173/35 36/163/37 27/165/47
f 31/95/34 49/97/35 45/174/36
f 29/150/42 42/152/46 48/175/48
f 41/176/44 27/177/47 34/178/45
f 13/61/25 39/161/43 46/62/24
f 28/179/32 45/180/36 46/181/24
f 47/45/21 48/175/48 42/152/46
f 48/175/48 47/45/21 3/44/7
f 35/182/39 37/183/30 52/184/50
f 27/177/47 41/176/44 52/185/50
f 52/167/50 51/170/41 50/172/51
f 45/186/36 6/60/9 46/59/24
f 52/187/50 41/188/44 35/189/39
f 50/190/51 48/191/48 44/192/17
f 43/193/52 50/194/51 44/195/17
f 40/196/49 49/173/35 27/165/47
f 45/197/36 49/173/35 40/196/49
f 52/198/50 43/199/52 44/200/17
f 52/185/50 40/201/49 27/177/47
f 40/202/49 44/203/17 45/204/36
