# Blender v2.79 (sub 0) OBJ File: ''
# www.blender.org
g haiku_point_1_LOD3
v -0.166676 0.007589 -0.429608
v -0.081357 -0.081263 -0.414429
v -0.161706 -0.111863 -0.415752
v -0.012655 -0.148651 0.321502
v 0.223153 -0.078498 0.372803
v 0.174515 0.016311 0.460648
v 0.065345 0.166366 0.418358
v 0.154825 0.229201 0.365332
v 0.096553 0.303996 0.366759
v -0.011434 0.190080 0.317052
v 0.217685 0.144394 0.210866
v 0.106435 0.410645 0.232969
v 0.233312 -0.190579 0.293748
v 0.155680 0.202188 0.155101
v -0.094291 0.382376 0.137421
v 0.183456 -0.020559 0.135693
v 0.088371 -0.469493 0.145657
v 0.139185 0.076508 -0.087862
v -0.074337 0.053092 0.222290
v 0.175833 -0.266188 0.340758
v -0.040862 -0.251194 0.248404
v 0.199517 -0.038562 0.041605
v 0.190587 -0.322402 0.089536
v -0.031765 0.519044 0.055072
v -0.155695 0.204022 0.107277
v -0.051501 -0.166388 0.170375
v -0.243146 0.095526 -0.397220
v -0.210763 0.391512 -0.104674
v -0.175196 -0.084776 -0.015182
v 0.141965 0.310095 0.048534
v 0.184489 -0.231458 -0.031873
v -0.119584 -0.276157 -0.381572
v -0.179712 0.073083 -0.008243
v 0.071709 -0.328084 -0.096521
v -0.179231 -0.227509 -0.092210
v 0.005134 -0.488221 -0.002255
v -0.063307 0.451845 -0.149607
v -0.026165 0.070604 -0.287145
v -0.140893 -0.184790 -0.121400
v 0.059820 -0.472501 -0.108028
v -0.218401 -0.134075 -0.170715
v 0.071469 0.125274 -0.137082
v 0.053399 -0.365497 -0.215172
v -0.076216 -0.395009 -0.144110
v 0.087572 0.044635 -0.111063
v -0.071876 0.359024 -0.176307
v 0.120438 0.019981 -0.156694
v 0.094934 -0.131398 -0.241477
v -0.254239 0.238972 -0.197698
v -0.019090 -0.395573 -0.210083
v -0.042224 0.328648 -0.234606
v -0.157404 0.392508 -0.206601
vt 0.436586 0.533645
vt 0.436586 0.714184
vt 0.353072 0.582450
vt 0.610115 0.886806
vt 0.664239 0.798111
vt 0.664239 0.925585
vt 0.638866 0.069178
vt 0.668077 0.000000
vt 0.629727 0.143305
vt 0.040389 0.874887
vt 0.040389 0.984512
vt 0.000000 0.899211
vt 0.683083 0.166460
vt 0.318641 0.745857
vt 0.186301 0.000000
vt 0.128786 0.130085
vt 0.016118 0.069623
vt 0.568752 0.841205
vt 0.609650 0.928404
vt 0.558190 0.928404
vt 0.490198 0.762748
vt 0.558190 0.752881
vt 0.558190 0.901513
vt 0.465643 0.884307
vt 0.297220 0.767920
vt 0.235912 0.745614
vt 0.203475 0.689251
vt 0.608891 0.752881
vt 0.715661 0.456595
vt 0.715661 0.598795
vt 0.665956 0.558735
vt 0.837050 0.482101
vt 0.883233 0.451866
vt 0.893333 0.566821
vt 0.317560 0.493868
vt 0.265409 0.358513
vt 0.317560 0.318513
vt 0.860086 0.797187
vt 0.731385 0.797187
vt 0.784698 0.658830
vt 0.782124 0.400767
vt 0.837050 0.288625
vt 0.823164 0.448920
vt 0.855930 0.288625
vt 0.782124 0.191691
vt 0.837051 0.125716
vt 0.152741 0.609878
vt 0.040389 0.913290
vt 0.075234 0.874887
vt 0.075234 1.000000
vt 0.318641 0.134430
vt 0.435600 0.000000
vt 0.464728 0.065830
vt 0.554726 0.130620
vt 0.595809 0.274342
vt 0.510056 0.292562
vt 0.201858 0.067190
vt 0.214256 0.203462
vt 0.782124 0.000000
vt 0.782124 0.133629
vt 0.759952 0.266258
vt 0.782124 0.658830
vt 0.731385 0.485260
vt 0.764044 0.527085
vt 0.309941 0.172407
vt 0.477456 0.077573
vt 0.464728 0.212953
vt 0.683083 0.310247
vt 0.595809 0.256167
vt 0.683083 0.112109
vt 0.000000 0.419258
vt 0.135462 0.411436
vt 0.015860 0.517879
vt 0.186888 0.472935
vt 0.265409 0.318513
vt 0.256832 0.428016
vt 0.855930 0.122145
vt 0.928308 0.000000
vt 0.928308 0.179742
vt 0.152741 0.374448
vt 0.056303 0.272281
vt 0.384821 0.225646
vt 0.855930 0.000000
vt 0.626172 0.733745
vt 0.610115 0.598795
vt 0.721617 0.624631
vt 0.251700 0.767920
vt 0.251700 0.898032
vt 0.152741 0.795720
vt 0.462618 0.199415
vt 0.837050 0.577259
vt 0.492631 0.533645
vt 0.404219 0.529068
vt 0.492631 0.348803
vt 0.595809 0.000000
vt 0.318641 0.382201
vt 0.318641 0.318513
vt 0.464728 0.348803
vt 0.143064 0.267823
vt 0.430483 0.877159
vt 0.461694 0.745857
vt 0.461694 0.894328
vt 0.962034 0.711441
vt 0.999411 0.658830
vt 0.999411 0.792284
vt 0.955925 0.248605
vt 0.988590 0.323277
vt 0.971806 0.492924
vt 0.000000 0.318513
vt 0.988590 0.235107
vt 0.737390 0.365068
vt 0.721617 0.798111
vt 0.928421 0.846762
vt 0.929711 0.658830
vt 0.962034 0.766522
vt 0.768093 0.378806
vt 0.847649 0.315729
vt 0.563792 0.582953
vt 0.610115 0.348803
vt 0.610115 0.533298
vt 0.965976 0.527631
vt 0.997706 0.492924
vt 0.997706 0.635145
vt 0.893333 0.288625
vt 0.265409 0.598503
vt 0.836803 0.951993
vt 0.788506 0.817280
vt 0.836803 0.797187
vt 0.788506 0.962154
vt 0.731385 0.874823
vt 0.788506 0.797187
vt 0.965976 0.654164
vt 0.893333 0.560080
vt 0.965976 0.506209
vt 0.955925 0.492924
vt 0.893333 0.417473
vt 0.955925 0.288625
vt 0.962034 0.917446
vt 0.982723 0.204979
vt 0.928308 0.031179
vt 0.982723 0.000000
vt 0.139995 0.531643
vt 0.073429 0.712474
vt 0.000000 0.559846
vt 0.619823 0.348803
vt 0.470975 0.292562
vt 0.499359 0.336812
vt 0.464728 0.336812
vt 0.492631 0.475236
vt 0.492980 0.379842
vt 0.904352 0.492924
vt 0.139995 0.726537
vt 0.115879 0.680543
vt 0.664239 0.884921
vt 0.719253 0.798111
vt 0.730258 0.884921
vt 0.782124 0.656457
vt 0.819279 0.577259
vt 0.859462 0.656457
vt 0.860086 0.961667
vt 0.866661 0.851376
vt 0.899064 0.988862
vt 0.870595 0.254927
vt 0.855930 0.214667
vt 0.915366 0.179742
vt 0.915366 0.271853
vt 0.899064 0.847769
vt 0.465643 0.732874
vt 0.483293 0.591388
vt 0.610115 0.752881
vt 0.150042 0.726537
vt 0.150042 0.877342
vt 0.116985 0.744077
vt 0.152741 0.531643
vt 0.152741 0.711745
vt 0.142361 0.577183
vt 0.290605 0.522647
vt 0.317560 0.493868
vt 0.317560 0.566276
vt 0.610115 0.582953
vt 0.000000 0.853992
vt 0.060317 0.735137
vt 0.116985 0.726537
vt 0.251700 0.845643
vt 0.312785 0.767920
vt 0.312785 0.963426
vt 0.782124 0.266258
vt 0.430483 0.887342
vt 0.318641 0.887342
vt 0.327203 0.745857
vt 0.042820 0.318513
vt 0.152741 0.318654
vt 0.116985 0.874887
vt 0.928421 0.847769
vt 0.860086 0.847769
vt 0.875165 0.658830
vt 1.000000 0.792284
vt 1.000000 0.921493
vt 0.962034 0.906489
vt 0.610115 0.537716
vt 0.152741 0.531643
vt 0.297220 0.598503
vn -0.4826 0.5388 0.6905
vn -0.6747 -0.4429 0.5904
vn 0.3591 0.0006 0.9333
vn 0.5983 0.4380 0.6710
vn 0.8628 -0.1917 0.4678
vn 0.9592 -0.2010 0.1989
vn 0.2728 0.2646 -0.9250
vn -0.2727 -0.6292 -0.7277
vn -0.4261 -0.1606 -0.8903
vn 0.3224 -0.5954 0.7359
vn -0.7792 0.0564 0.6241
vn -0.5267 -0.1317 0.8398
vn 0.0214 0.4373 0.8990
vn 0.9493 0.3008 -0.0915
vn -0.6684 0.2184 -0.7110
vn 0.1473 0.0483 -0.9879
vn 0.7056 0.2552 -0.6611
vn 0.9260 0.3331 -0.1776
vn -0.6423 -0.0175 0.7663
vn 0.1624 -0.8992 0.4062
vn -0.8069 -0.0676 0.5867
vn 0.5390 0.7704 0.3404
vn 0.9116 0.3724 -0.1740
vn -0.7221 0.4295 0.5423
vn -0.9048 0.0483 0.4230
vn 0.9128 0.4017 -0.0729
vn 0.8263 -0.0471 -0.5611
vn 0.0022 0.9937 0.1120
vn 0.9199 -0.3848 -0.0758
vn 0.8246 -0.0357 -0.5645
vn 0.9175 0.2836 -0.2787
vn -0.3990 -0.9123 0.0925
vn -0.9954 0.0765 -0.0573
vn 0.7572 0.0481 -0.6514
vn 0.3380 -0.6855 -0.6448
vn -0.9539 -0.1532 -0.2579
vn -0.9127 0.3894 -0.1240
vn -0.8796 -0.1853 0.4380
vn 0.7800 0.3723 -0.5029
vn -0.9665 -0.2476 -0.0679
vn 0.7731 0.5279 -0.3516
vn 0.2413 0.7587 -0.6051
vn 0.7454 -0.2967 -0.5969
vn 0.6692 -0.6641 -0.3334
vn 0.6522 0.0526 -0.7562
vn -0.8957 -0.3757 0.2379
vn -0.6051 -0.6914 -0.3946
vn -0.4134 0.6924 -0.5913
vn -0.9287 0.3385 0.1509
vn 0.6369 0.5950 -0.4902
vn 0.6114 0.5100 -0.6050
vn -0.0887 -0.9678 -0.2353
s 1
f 7/1/1 4/2/2 6/3/3
f 7/4/1 6/5/3 8/6/4
f 5/7/5 6/8/3 13/9/6
f 2/10/7 32/11/8 3/12/9
f 13/9/6 6/8/3 20/13/10
f 20/14/10 6/3/3 4/2/2
f 7/15/1 19/16/11 4/17/2
f 10/18/12 8/19/4 9/20/13
f 6/21/3 5/22/5 11/23/14
f 11/23/14 8/24/4 6/21/3
f 27/25/15 1/26/16 3/27/9
f 8/19/4 10/18/12 19/28/11
f 38/29/17 3/30/9 1/31/16
f 11/32/14 14/33/18 8/34/4
f 19/35/11 7/36/1 8/37/4
f 20/38/10 21/39/19 17/40/20
f 21/41/19 20/42/10 26/43/21
f 20/44/10 4/45/2 26/46/21
f 27/25/15 3/27/9 32/47/8
f 9/48/13 8/49/4 12/50/22
f 22/51/23 5/52/5 13/53/6
f 15/54/24 10/55/12 9/56/13
f 10/57/12 25/58/25 19/16/11
f 5/59/5 16/60/26 18/61/27
f 5/62/5 22/63/23 16/64/26
f 15/65/24 25/58/25 10/57/12
f 24/66/28 9/56/13 12/67/22
f 15/54/24 9/56/13 24/66/28
f 20/13/10 17/68/20 23/69/29
f 11/70/14 5/59/5 18/61/27
f 23/69/29 13/9/6 20/13/10
f 2/71/7 48/72/30 32/73/8
f 4/17/2 19/16/11 25/58/25
f 30/74/31 8/75/4 14/76/18
f 17/77/20 21/78/19 36/79/32
f 8/75/4 30/74/31 12/80/22
f 25/58/25 29/81/33 4/17/2
f 13/53/6 31/82/34 22/51/23
f 4/45/2 29/83/33 26/46/21
f 24/84/28 12/85/22 30/86/31
f 17/87/20 40/88/35 23/89/29
f 23/90/29 31/82/34 13/53/6
f 21/41/19 26/43/21 29/91/33
f 29/92/33 35/93/36 21/94/19
f 24/66/28 28/95/37 15/54/24
f 36/96/32 21/94/19 35/93/36
f 25/58/25 15/65/24 28/97/37
f 23/90/29 40/98/35 31/82/34
f 25/58/25 28/97/37 33/99/38
f 18/100/27 16/101/26 45/102/39
f 36/103/32 40/104/35 17/105/20
f 39/106/40 29/107/33 25/108/25
f 39/109/40 25/58/25 33/99/38
f 35/110/36 29/107/33 39/106/40
f 22/63/23 47/111/41 16/64/26
f 37/112/42 24/84/28 30/86/31
f 34/113/43 22/114/23 31/115/34
f 16/64/26 47/111/41 45/116/39
f 18/117/27 14/33/18 11/32/14
f 43/118/44 22/119/23 34/120/43
f 2/121/7 3/122/9 38/123/17
f 18/117/27 42/124/45 14/33/18
f 30/74/31 14/76/18 42/125/45
f 33/126/38 41/127/46 39/128/40
f 35/129/36 44/130/47 36/131/32
f 24/132/28 37/133/42 28/134/37
f 52/135/48 49/136/49 33/137/38
f 34/113/43 31/115/34 40/138/35
f 33/139/38 28/140/37 52/141/48
f 42/142/45 37/143/42 30/144/31
f 38/29/17 1/31/16 51/145/50
f 42/146/45 18/147/27 45/148/39
f 48/149/30 47/150/41 22/119/23
f 52/151/48 28/134/37 37/133/42
f 52/152/48 37/143/42 46/153/51
f 36/154/32 44/155/47 40/156/35
f 22/119/23 43/118/44 48/149/30
f 40/157/35 44/158/47 34/159/43
f 42/142/45 46/153/51 37/143/42
f 44/160/47 35/161/36 50/162/52
f 50/163/52 43/164/44 34/165/43
f 50/163/52 34/165/43 44/166/47
f 39/167/40 50/162/52 35/161/36
f 33/168/38 49/169/49 41/170/46
f 46/171/51 42/172/45 51/173/50
f 45/174/39 51/175/50 42/176/45
f 46/177/51 51/178/50 52/179/48
f 41/170/46 49/169/49 27/180/15
f 50/181/52 39/182/40 41/183/46
f 49/184/49 52/185/48 27/186/15
f 38/187/17 45/116/39 47/111/41
f 45/188/39 38/189/17 51/190/50
f 38/191/17 47/192/41 48/72/30
f 41/183/46 32/193/8 50/181/52
f 52/194/48 51/195/50 27/196/15
f 32/197/8 43/198/44 50/199/52
f 48/72/30 2/71/7 38/191/17
f 51/145/50 1/31/16 27/200/15
f 48/72/30 43/201/44 32/73/8
f 41/202/46 27/25/15 32/47/8
