<?xml version="1.0" encoding="UTF-8" standalone="no"?>
<svg
   xmlns:dc="http://purl.org/dc/elements/1.1/"
   xmlns:cc="http://creativecommons.org/ns#"
   xmlns:rdf="http://www.w3.org/1999/02/22-rdf-syntax-ns#"
   xmlns:svg="http://www.w3.org/2000/svg"
   xmlns="http://www.w3.org/2000/svg"
   xmlns:sodipodi="http://sodipodi.sourceforge.net/DTD/sodipodi-0.dtd"
   xmlns:inkscape="http://www.inkscape.org/namespaces/inkscape"
   viewBox="0 0 20 50.000001"
   version="1.1"
   id="svg8"
   sodipodi:docname="ILineTextureVisAsset.svg"
   width="20"
   height="50"
   inkscape:version="0.92.4 (5da689c313, 2019-01-14)">
  <metadata
     id="metadata14">
    <rdf:RDF>
      <cc:Work
         rdf:about="">
        <dc:format>image/svg+xml</dc:format>
        <dc:type
           rdf:resource="http://purl.org/dc/dcmitype/StillImage" />
        <dc:title>Asset 33</dc:title>
      </cc:Work>
    </rdf:RDF>
  </metadata>
  <defs
     id="defs12" />
  <sodipodi:namedview
     pagecolor="#ffffff"
     bordercolor="#666666"
     borderopacity="1"
     objecttolerance="10"
     gridtolerance="10"
     guidetolerance="10"
     inkscape:pageopacity="0"
     inkscape:pageshadow="2"
     inkscape:window-width="1500"
     inkscape:window-height="2371"
     id="namedview10"
     showgrid="false"
     inkscape:zoom="17.428429"
     inkscape:cx="14.880876"
     inkscape:cy="35.557083"
     inkscape:window-x="-9"
     inkscape:window-y="-9"
     inkscape:window-maximized="1"
     inkscape:current-layer="Layer_1-2" />
  <title
     id="title2">Asset 33</title>
  <g
     id="Layer_2"
     data-name="Layer 2"
     transform="matrix(0.74693093,0,0,0.74693093,0,10.655283)"
     style="stroke-width:1.33881187">
    <g
       id="Layer_1-2"
       data-name="Layer 1"
       style="stroke-width:1.33881187">
      <path
         d="M 3.67,23.45 C 3.4927754,22.658007 3.1780061,21.903237 2.74,21.22 2.53,20.84 2.32,20.46 2.14,20.08 1.4462091,18.27856 1.1066649,16.360135 1.14,14.43 L 0.86,0.96939496 H 0 c 0,0 0,11.82796004 0,17.74194004 0,6.243008 0,18.729025 0,18.729025 H 1.25 L 2.62,27.14 c 0.6990088,-1.102788 1.0636977,-2.384409 1.05,-3.69 z m 12.69,-2.27 c -0.12,-0.4 -0.28,-0.64 -0.45,-0.71 -0.17,-0.07 -0.58,0.12 -0.79,0.38 -0.587822,0.919005 -0.868003,2.001202 -0.8,3.09 -0.07,2.17 -0.09,4.35 -0.05,6.49 -0.03659,1.637278 -0.323229,5.459705 -0.85,7.01036 v 0 h 2.7 C 15.67109,35.471229 15.606576,28.813588 15.93,26.82 c 0.08,-0.38 0.19,-0.77 0.31,-1.15 0.12,-0.38 0.24,-0.85 0.32,-1.27 0.206738,-1.072974 0.137925,-2.180856 -0.2,-3.22 z m 1,-20.21060504 C 17.459253,1.5031783 17.589473,7.7113412 17.75,8.23 c 0.14,0.52 0.3,1 0.4,1.57 0.218695,1.631477 0.191729,3.286513 -0.08,4.91 -0.215961,1.365483 -0.273008,2.751388 -0.17,4.13 L 17,19 C 16.877604,17.542195 16.931324,16.074951 17.16,14.63 17.410328,13.097819 17.423818,11.536277 17.2,10 17.10503,9.4967169 16.981497,8.999246 16.83,8.51 16.522714,7.6035165 16.350863,1.9260477 16.32,0.96939496 H 12.27 C 12.579621,2.8947348 13.258764,5.6726068 14.27,7.34 l 0.13,0.24 c 1.76,3.42 2.12,6.08 1.09,8.13 -0.393896,0.740015 -0.899876,1.414656 -1.5,2 -0.522103,0.504115 -0.969913,1.079872 -1.33,1.71 -0.472988,1.188545 -0.697601,2.461351 -0.66,3.74 v 0.56 c -0.177592,2.78676 -0.711953,5.539225 -1.59,8.19 l -0.33,0.94 c -0.5566006,1.365117 -0.8940921,3.119941 -1,4.59036 h 1.25 1.81 c 0.14,-0.55 0.3,-1.93036 0.45,-2.47036 0.499697,-1.456697 0.776158,-2.980604 0.82,-4.52 -0.05,-2.16 0,-4.36 0,-6.54 -0.08949,-1.301042 0.262871,-2.594194 1,-3.67 0.425805,-0.599188 1.183762,-0.863871 1.89,-0.66 0.512387,0.265241 0.879234,0.745811 1,1.31 0.365456,1.181771 0.434147,2.435375 0.2,3.65 -0.08,0.47 -0.22,0.92 -0.34,1.36 -0.12,0.44 -0.21,0.72 -0.3,1.08 -0.283483,1.663922 -0.256359,8.806316 0.08,10.46036 h 1.78 C 18.262265,34.604417 18.148108,24.623271 18.38,21.76 l 1,0.08 c -0.206814,2.567032 -0.133045,13.049324 0.22,15.60036 h 0.44 c 0,0 0,-13.081073 0,-19.62161 0,-5.616452 0,-16.84935504 0,-16.84935504 z M 12.26,9.74 C 11.734616,9.0450061 11.173877,8.3774598 10.58,7.74 10.333801,7.4140816 9.9790717,7.1870549 9.58,7.1 9.533783,7.0908385 9.486217,7.0908385 9.44,7.1 8.85,7.3 8.04,8.62 7.54,13.71 v 0.49 c -0.1484468,0.555223 -0.076798,1.146322 0.2,1.65 0.2942214,0.272413 0.6635318,0.4501 1.06,0.51 0.8543923,0.319779 1.795608,0.319779 2.65,0 0.497423,-0.35419 0.904974,-0.819963 1.19,-1.36 0.432779,-0.550611 0.749179,-1.18341 0.93,-1.86 0.02183,-1.260519 -0.448032,-2.480002 -1.31,-3.4 z m -1.14,3.72 -0.47,1 c -0.127487,0.299347 -0.353244,0.54627 -0.64,0.7 C 9.8915536,15.20424 9.76642,15.22791 9.64,15.23 9.4821906,15.229257 9.3272253,15.187933 9.19,15.11 8.7804051,14.842626 8.5040227,14.413506 8.43,13.93 8.2469432,12.500826 8.8466686,11.08364 10,10.22 l 0.21,0.27 c 0.190718,-0.0093 0.380498,0.03208 0.55,0.12 0.428986,0.199136 0.739888,0.587764 0.84,1.05 0.04231,0.636461 -0.126396,1.269117 -0.48,1.8 z m -0.79,-2 h -0.15 l -0.07,-0.11 c -0.570509,0.66938 -0.8351836,1.546795 -0.73,2.42 0.020439,0.195388 0.1220429,0.373194 0.28,0.49 0,0 0.1,-0.2 0.12,-0.25 l 0.49,-1 c 0.231095,-0.356859 0.349556,-0.774957 0.34,-1.2 -0.04095,-0.145459 -0.143151,-0.26591 -0.28,-0.33 z M 12.26,9.72 C 11.734616,9.0250061 11.173877,8.3574598 10.58,7.72 10.333801,7.3940816 9.9790717,7.1670549 9.58,7.08 9.533783,7.07084 9.486217,7.07084 9.44,7.08 8.85,7.28 8.04,8.6 7.54,13.69 v 0.49 c -0.1484468,0.555223 -0.076798,1.146322 0.2,1.65 0.2942214,0.272413 0.6635318,0.4501 1.06,0.51 0.8543923,0.319779 1.795608,0.319779 2.65,0 0.495061,-0.348512 0.902427,-0.807227 1.19,-1.34 0.432779,-0.550611 0.749179,-1.18341 0.93,-1.86 0.02183,-1.260519 -0.448032,-2.480002 -1.31,-3.4 z m -1.14,3.72 -0.47,1 c -0.127487,0.299347 -0.353244,0.54627 -0.64,0.7 C 9.8915536,15.18424 9.76642,15.20791 9.64,15.21 9.4821906,15.209257 9.3272253,15.167933 9.19,15.09 8.7804051,14.822626 8.5040227,14.393506 8.43,13.91 8.2544595,12.487554 8.8533798,11.079901 10,10.22 l 0.21,0.27 c 0.190718,-0.0093 0.380498,0.03208 0.55,0.12 0.428986,0.199136 0.739888,0.587764 0.84,1.05 0.04231,0.636461 -0.126396,1.269117 -0.48,1.8 z m -0.79,-2 h -0.15 l -0.07,-0.11 c -0.570509,0.66938 -0.8351836,1.546795 -0.73,2.42 0.020439,0.195388 0.1220429,0.373194 0.28,0.49 0,0 0.1,-0.2 0.12,-0.25 l 0.49,-1 c 0.231095,-0.356859 0.349556,-0.774957 0.34,-1.2 -0.0459,-0.137928 -0.147439,-0.250346 -0.28,-0.31 z M 13.55,8 13.42,7.76 C 12.35,5.72 11.15,3.3693949 11.32,0.96939496 H 10.24 7.53 C 7.662546,1.9898941 7.5138634,4.5878195 7.1,5.53 6.7814731,6.3135498 6.6282708,7.1544602 6.65,8 L 5.71,8.12 C 5.6581423,7.1397397 5.8219946,6.1600393 6.19,5.25 6.4318766,4.6489494 6.5835176,1.6148218 6.64,0.96939496 H 3.84 C 3.7086562,4.2299286 4.2569345,12.512744 5.45,15.55 c 0.34,0.86 0.73,1.71 1.13,2.55 0.6811783,1.369359 1.2529619,2.790458 1.71,4.25 0.83,2.9 0.55,5.71 -0.76,7.53 -0.2537563,0.348917 -0.52755,0.682812 -0.82,1 -0.3017271,0.309002 -0.5760883,0.643589 -0.82,1 -0.3574084,0.538444 -0.5897556,4.920424 -0.68,5.56036 H 8 8.09 C 8.2803027,36.153291 8.6157743,33.741558 9.09,32.53 9.2,32.23 9.31,31.92 9.41,31.61 10.281787,29.043405 10.816265,26.374379 11,23.67 V 23.1 c -0.02178,-1.408462 0.254244,-2.805637 0.81,-4.1 0.394613,-0.734354 0.893077,-1.407955 1.48,-2 0.534159,-0.509518 0.989183,-1.095993 1.35,-1.74 0.88,-1.73 0.53,-4.11 -1.09,-7.26 z m 0.95,5.31 v 0 c -0.190618,0.820134 -0.559332,1.58829 -1.08,2.25 -0.390705,0.652346 -0.93262,1.20112 -1.58,1.6 -0.491937,0.261737 -1.042909,0.392593 -1.6,0.38 C 9.6442319,17.525286 9.0527815,17.434552 8.48,17.27 7.8990635,17.160872 7.3633105,16.882558 6.94,16.47 6.4813756,15.759737 6.3264993,14.895311 6.51,14.07 V 13.6 c 0.33,-3.35 0.9,-6.85 2.54,-7.42 0.69,-0.23 1.42,0.06 2.18,0.87 0.76,0.81 1.26,1.41 1.77,2.11 1.050061,1.125869 1.592273,2.633219 1.5,4.17 z M 10.58,7.74 C 10.333801,7.4140816 9.9790717,7.1870549 9.58,7.1 9.533783,7.0908385 9.486217,7.0908385 9.44,7.1 8.85,7.3 8.04,8.62 7.54,13.71 v 0.49 c -0.1484468,0.555223 -0.076798,1.146322 0.2,1.65 0.2942214,0.272413 0.6635318,0.4501 1.06,0.51 0.8543923,0.319779 1.795608,0.319779 2.65,0 0.497423,-0.35419 0.904974,-0.819963 1.19,-1.36 0.432779,-0.550611 0.749179,-1.18341 0.93,-1.86 C 13.5997,11.869172 13.129291,10.63748 12.26,9.71 11.7338,9.0252444 11.173074,8.3677265 10.58,7.74 Z m 0.54,5.72 -0.47,1 c -0.127487,0.299347 -0.353244,0.54627 -0.64,0.7 C 9.8915536,15.20424 9.76642,15.22791 9.64,15.23 9.4821906,15.229257 9.3272253,15.187933 9.19,15.11 8.7804051,14.842626 8.5040227,14.413506 8.43,13.93 8.2469432,12.500826 8.8466686,11.08364 10,10.22 l 0.21,0.27 c 0.190718,-0.0093 0.380498,0.03208 0.55,0.12 0.428986,0.199136 0.739888,0.587764 0.84,1.05 0.04231,0.636461 -0.126396,1.269117 -0.48,1.8 z m -0.79,-2 h -0.15 l -0.07,-0.11 c -0.570509,0.66938 -0.8351836,1.546795 -0.73,2.42 0.020439,0.195388 0.1220429,0.373194 0.28,0.49 0,0 0.1,-0.2 0.12,-0.25 l 0.49,-1 c 0.231095,-0.356859 0.349556,-0.774957 0.34,-1.2 -0.04095,-0.145459 -0.143151,-0.26591 -0.28,-0.33 z m -3,11.11 C 6.8808065,21.160206 6.3258986,19.786307 5.67,18.46 5.27,17.62 4.87,16.74 4.52,15.85 3.3923907,12.983603 2.8156392,4.0496083 2.82,0.96939496 H 2.2 1.74 L 2.04,14.34 c -0.032558,1.822425 0.293632,3.633461 0.96,5.33 0.16,0.37 0.36,0.73 0.55,1.09 0.48786,0.780996 0.8269072,1.645566 1,2.55 0.06462,1.498652 -0.3296011,2.981341 -1.13,4.25 L 2,37.44036 H 4.4 C 4.5507375,36.887104 4.7869139,31.750408 5.1,31.27 5.376663,30.884844 5.6772553,30.517453 6,30.17 6.2666106,29.894745 6.5170311,29.604257 6.75,29.3 7.89,27.72 8.12,25.21 7.37,22.59 Z"
         id="path4"
         inkscape:connector-curvature="0"
         sodipodi:nodetypes="ccccccscccccscccccccsccccccccccccccccccccccccccccccccscccccccsccccccccccccccccccccccccccccccccccccccccccccccccccccccccccccccccccccccccccccccccccccccccccccccccccccccccccccscccccccccccccccccccccccccccccccccccccccccccccccccccccc"
         style="stroke-width:1.33881187" />
      <g
         id="g852"
         transform="translate(0,-0.31886325)">
        <path
           sodipodi:nodetypes="ccccc"
           style="fill-rule:evenodd;stroke-width:1.79241729"
           inkscape:connector-curvature="0"
           id="path14"
           d="M 26.804992,9.320843 V 11.21999 C 25.388691,11.1665 23.430415,15.123708 19.911864,11.11951 V 8.4805738 c 2.425538,5.2350302 4.74929,1.181277 6.893128,0.8402692 z"
           class="cls-1" />
        <path
           class="cls-1"
           d="m 26.804992,15.205325 v 1.899147 c -1.416301,-0.05349 -3.374577,3.903718 -6.893128,-0.10048 v -2.638936 c 2.425538,5.23503 4.74929,1.181277 6.893128,0.840269 z"
           id="path842"
           inkscape:connector-curvature="0"
           style="fill-rule:evenodd;stroke-width:1.79241729"
           sodipodi:nodetypes="ccccc" />
        <path
           sodipodi:nodetypes="ccccc"
           style="fill-rule:evenodd;stroke-width:1.79241729"
           inkscape:connector-curvature="0"
           id="path844"
           d="m 26.804992,21.08981 v 1.899147 c -1.416301,-0.05349 -3.374577,3.903718 -6.893128,-0.10048 v -2.638936 c 2.425538,5.23503 4.74929,1.181277 6.893128,0.840269 z"
           class="cls-1" />
        <path
           class="cls-1"
           d="m 26.804992,26.974297 v 1.899147 c -1.416301,-0.05349 -3.374577,3.903718 -6.893128,-0.10048 v -2.638936 c 2.425538,5.23503 4.74929,1.181277 6.893128,0.840269 z"
           id="path846"
           inkscape:connector-curvature="0"
           style="fill-rule:evenodd;stroke-width:1.79241729"
           sodipodi:nodetypes="ccccc" />
      </g>
    </g>
  </g>
</svg>
