<?xml version="1.0" encoding="UTF-8" standalone="no"?>
<svg
   xmlns:dc="http://purl.org/dc/elements/1.1/"
   xmlns:cc="http://creativecommons.org/ns#"
   xmlns:rdf="http://www.w3.org/1999/02/22-rdf-syntax-ns#"
   xmlns:svg="http://www.w3.org/2000/svg"
   xmlns="http://www.w3.org/2000/svg"
   xmlns:sodipodi="http://sodipodi.sourceforge.net/DTD/sodipodi-0.dtd"
   xmlns:inkscape="http://www.inkscape.org/namespaces/inkscape"
   viewBox="0 0 43 42.999999"
   version="1.1"
   id="svg12"
   sodipodi:docname="datakey-surface.svg"
   width="43"
   height="43"
   inkscape:version="0.92.4 (5da689c313, 2019-01-14)">
  <metadata
     id="metadata16">
    <rdf:RDF>
      <cc:Work
         rdf:about="">
        <dc:format>image/svg+xml</dc:format>
        <dc:type
           rdf:resource="http://purl.org/dc/dcmitype/StillImage" />
        <dc:title>Asset 26</dc:title>
      </cc:Work>
    </rdf:RDF>
  </metadata>
  <sodipodi:namedview
     pagecolor="#ffffff"
     bordercolor="#666666"
     borderopacity="1"
     objecttolerance="10"
     gridtolerance="10"
     guidetolerance="10"
     inkscape:pageopacity="0"
     inkscape:pageshadow="2"
     inkscape:window-width="716"
     inkscape:window-height="480"
     id="namedview14"
     showgrid="false"
     inkscape:zoom="3.3023256"
     inkscape:cx="17.150983"
     inkscape:cy="26.184017"
     inkscape:window-x="0"
     inkscape:window-y="0"
     inkscape:window-maximized="0"
     inkscape:current-layer="svg12" />
  <defs
     id="defs4">
    <style
       id="style2">.cls-1{fill-rule:evenodd;}</style>
  </defs>
  <title
     id="title6">Asset 26</title>
  <g
     id="Layer_2"
     data-name="Layer 2"
     transform="translate(0,6.6181815)">
    <g
       id="Layer_1-2"
       data-name="Layer 1">
      <path
         class="cls-1"
         d="m 43,13.23 v 3.82 L 31.33,29.78 H 0 V 22.27 C 1.64,20.9 3,19.67 4.22,18.71 11.97,12.65 9.82,11.89 12.33,6.59 13.2,4.07 14.54,1.44 17,0.4 a 5.56,5.56 0 0 1 6,1.17 18.48,18.48 0 0 0 1.61,1.7 1.93,1.93 0 0 0 2.17,0.26 4.6,4.6 0 0 0 0.75,-0.84 3.92,3.92 0 0 1 4.66,-0.61 8.72,8.72 0 0 1 3.4,3.66 29.71,29.71 0 0 0 2.59,4.35 9.44,9.44 0 0 0 4.82,3.14 z"
         id="path8"
         inkscape:connector-curvature="0"
         style="fill-rule:evenodd" />
    </g>
  </g>
</svg>
