<?xml version="1.0" encoding="UTF-8" standalone="no"?>
<svg
   xmlns:dc="http://purl.org/dc/elements/1.1/"
   xmlns:cc="http://creativecommons.org/ns#"
   xmlns:rdf="http://www.w3.org/1999/02/22-rdf-syntax-ns#"
   xmlns:svg="http://www.w3.org/2000/svg"
   xmlns="http://www.w3.org/2000/svg"
   xmlns:sodipodi="http://sodipodi.sourceforge.net/DTD/sodipodi-0.dtd"
   xmlns:inkscape="http://www.inkscape.org/namespaces/inkscape"
   viewBox="0 0 43 43"
   version="1.1"
   id="svg18"
   sodipodi:docname="Line.svg"
   width="43"
   height="43"
   inkscape:version="0.92.4 (5da689c313, 2019-01-14)">
  <metadata
     id="metadata22">
    <rdf:RDF>
      <cc:Work
         rdf:about="">
        <dc:format>image/svg+xml</dc:format>
        <dc:type
           rdf:resource="http://purl.org/dc/dcmitype/StillImage" />
        <dc:title>Asset 27</dc:title>
      </cc:Work>
    </rdf:RDF>
  </metadata>
  <sodipodi:namedview
     pagecolor="#ffffff"
     bordercolor="#666666"
     borderopacity="1"
     objecttolerance="10"
     gridtolerance="10"
     guidetolerance="10"
     inkscape:pageopacity="0"
     inkscape:pageshadow="2"
     inkscape:window-width="700"
     inkscape:window-height="480"
     id="namedview20"
     showgrid="false"
     inkscape:zoom="5.4883721"
     inkscape:cx="21.365"
     inkscape:cy="21.5"
     inkscape:window-x="0"
     inkscape:window-y="0"
     inkscape:window-maximized="0"
     inkscape:current-layer="svg18" />
  <defs
     id="defs4">
    <style
       id="style2">.cls-1{fill-rule:evenodd;}</style>
  </defs>
  <title
     id="title6">Asset 27</title>
  <g
     id="Layer_2"
     data-name="Layer 2">
    <g
       id="Layer_1-2"
       data-name="Layer 1">
      <path
         class="cls-1"
         d="M 37.15,39.63 35.92,43 C 9.11,20.87 8.66,44.77 0,41.2 v -4 c 9.9,6.47 9.13,-20.72 37.15,2.43 z"
         id="path8"
         inkscape:connector-curvature="0"
         style="fill-rule:evenodd" />
      <path
         class="cls-1"
         d="M 39.12,29.59 37.9,33 C 9.19,9.26 10.68,38.36 0,30 V 25.49 C 12.07,37.19 9.36,5 39.12,29.59 Z"
         id="path10"
         inkscape:connector-curvature="0"
         style="fill-rule:evenodd" />
      <path
         class="cls-1"
         d="m 40.92,19.56 -1.23,3.37 C 9.46,-2 12.74,31.57 0,18.26 v -4.74 c 14.2,16.79 9.76,-19.7 40.92,6.04 z"
         id="path12"
         inkscape:connector-curvature="0"
         style="fill-rule:evenodd" />
      <path
         class="cls-1"
         d="M 42.73,9.52 41.49,12.9 C 9.92,-13.17 14.89,24.61 0,6.18 v -5 c 16.41,22.11 10.31,-18.43 42.73,8.34 z"
         id="path14"
         inkscape:connector-curvature="0"
         style="fill-rule:evenodd" />
    </g>
  </g>
</svg>
